solid Default
  facet normal 0.000000e+00 1.000000e+00 0.000000e+00
    outer loop
      vertex -4.000000e+01 7.550000e+00 1.000000e+01
      vertex -4.000000e+01 7.550000e+00 0.000000e+00
      vertex -5.000000e+01 7.550000e+00 0.000000e+00
    endloop
  endfacet
  facet normal 0.000000e+00 1.000000e+00 0.000000e+00
    outer loop
      vertex -5.000000e+01 7.550000e+00 1.000000e+01
      vertex -4.000000e+01 7.550000e+00 1.000000e+01
      vertex -5.000000e+01 7.550000e+00 0.000000e+00
    endloop
  endfacet
  facet normal 1.000000e+00 0.000000e+00 0.000000e+00
    outer loop
      vertex -4.000000e+01 4.550000e+00 1.000000e+01
      vertex -4.000000e+01 4.550000e+00 0.000000e+00
      vertex -4.000000e+01 7.550000e+00 0.000000e+00
    endloop
  endfacet
  facet normal 1.000000e+00 0.000000e+00 0.000000e+00
    outer loop
      vertex -4.000000e+01 7.550000e+00 1.000000e+01
      vertex -4.000000e+01 4.550000e+00 1.000000e+01
      vertex -4.000000e+01 7.550000e+00 0.000000e+00
    endloop
  endfacet
  facet normal -1.000000e+00 0.000000e+00 0.000000e+00
    outer loop
      vertex -5.000000e+01 7.550000e+00 1.000000e+01
      vertex -5.000000e+01 7.550000e+00 0.000000e+00
      vertex -5.000000e+01 -1.450000e+00 0.000000e+00
    endloop
  endfacet
  facet normal -1.000000e+00 0.000000e+00 0.000000e+00
    outer loop
      vertex -5.000000e+01 -1.450000e+00 1.000000e+01
      vertex -5.000000e+01 7.550000e+00 1.000000e+01
      vertex -5.000000e+01 -1.450000e+00 0.000000e+00
    endloop
  endfacet
  facet normal 0.000000e+00 0.000000e+00 -1.000000e+00
    outer loop
      vertex 5.000000e+01 7.550000e+00 0.000000e+00
      vertex 5.000000e+01 -1.450000e+00 0.000000e+00
      vertex 4.748902e+01 5.609789e-01 0.000000e+00
    endloop
  endfacet
  facet normal 0.000000e+00 0.000000e+00 -1.000000e+00
    outer loop
      vertex 4.251098e+01 5.609789e-01 0.000000e+00
      vertex 4.748902e+01 5.609789e-01 0.000000e+00
      vertex 5.000000e+01 -1.450000e+00 0.000000e+00
    endloop
  endfacet
  facet normal 0.000000e+00 0.000000e+00 -1.000000e+00
    outer loop
      vertex 4.748902e+01 5.539021e+00 0.000000e+00
      vertex 5.000000e+01 7.550000e+00 0.000000e+00
      vertex 4.748902e+01 5.609789e-01 0.000000e+00
    endloop
  endfacet
  facet normal 0.000000e+00 0.000000e+00 -1.000000e+00
    outer loop
      vertex 4.251098e+01 5.539021e+00 0.000000e+00
      vertex 5.000000e+01 7.550000e+00 0.000000e+00
      vertex 4.748902e+01 5.539021e+00 0.000000e+00
    endloop
  endfacet
  facet normal 0.000000e+00 0.000000e+00 -1.000000e+00
    outer loop
      vertex 1.600000e+01 -1.450000e+00 0.000000e+00
      vertex 4.251098e+01 5.539021e+00 0.000000e+00
      vertex 4.251098e+01 5.609789e-01 0.000000e+00
    endloop
  endfacet
  facet normal 0.000000e+00 0.000000e+00 -1.000000e+00
    outer loop
      vertex 1.600000e+01 -1.450000e+00 0.000000e+00
      vertex 4.251098e+01 5.609789e-01 0.000000e+00
      vertex 5.000000e+01 -1.450000e+00 0.000000e+00
    endloop
  endfacet
  facet normal 0.000000e+00 0.000000e+00 -1.000000e+00
    outer loop
      vertex 6.000000e+00 1.550000e+00 0.000000e+00
      vertex 1.600000e+01 -1.450000e+00 0.000000e+00
      vertex 6.000000e+00 -1.450000e+00 0.000000e+00
    endloop
  endfacet
  facet normal 0.000000e+00 0.000000e+00 -1.000000e+00
    outer loop
      vertex 6.000000e+00 4.550000e+00 0.000000e+00
      vertex 1.600000e+01 -1.450000e+00 0.000000e+00
      vertex 6.000000e+00 1.550000e+00 0.000000e+00
    endloop
  endfacet
  facet normal 0.000000e+00 0.000000e+00 -1.000000e+00
    outer loop
      vertex 6.000000e+00 7.550000e+00 0.000000e+00
      vertex 4.251098e+01 5.539021e+00 0.000000e+00
      vertex 1.600000e+01 -1.450000e+00 0.000000e+00
    endloop
  endfacet
  facet normal 0.000000e+00 0.000000e+00 -1.000000e+00
    outer loop
      vertex 6.000000e+00 7.550000e+00 0.000000e+00
      vertex 1.600000e+01 -1.450000e+00 0.000000e+00
      vertex 6.000000e+00 4.550000e+00 0.000000e+00
    endloop
  endfacet
  facet normal 0.000000e+00 0.000000e+00 -1.000000e+00
    outer loop
      vertex -4.250000e+01 5.500000e-01 0.000000e+00
      vertex -4.000000e+01 1.550000e+00 0.000000e+00
      vertex -4.000000e+01 -1.450000e+00 0.000000e+00
    endloop
  endfacet
  facet normal 0.000000e+00 0.000000e+00 -1.000000e+00
    outer loop
      vertex -4.000000e+01 4.550000e+00 0.000000e+00
      vertex 6.000000e+00 1.550000e+00 0.000000e+00
      vertex -4.000000e+01 1.550000e+00 0.000000e+00
    endloop
  endfacet
  facet normal 0.000000e+00 0.000000e+00 -1.000000e+00
    outer loop
      vertex -4.000000e+01 4.550000e+00 0.000000e+00
      vertex 6.000000e+00 4.550000e+00 0.000000e+00
      vertex 6.000000e+00 1.550000e+00 0.000000e+00
    endloop
  endfacet
  facet normal 0.000000e+00 0.000000e+00 -1.000000e+00
    outer loop
      vertex -4.250000e+01 5.550000e+00 0.000000e+00
      vertex -4.000000e+01 7.550000e+00 0.000000e+00
      vertex -4.000000e+01 4.550000e+00 0.000000e+00
    endloop
  endfacet
  facet normal 0.000000e+00 0.000000e+00 -1.000000e+00
    outer loop
      vertex -4.250000e+01 5.550000e+00 0.000000e+00
      vertex -4.000000e+01 1.550000e+00 0.000000e+00
      vertex -4.250000e+01 5.500000e-01 0.000000e+00
    endloop
  endfacet
  facet normal 0.000000e+00 0.000000e+00 -1.000000e+00
    outer loop
      vertex -4.250000e+01 5.550000e+00 0.000000e+00
      vertex -4.000000e+01 4.550000e+00 0.000000e+00
      vertex -4.000000e+01 1.550000e+00 0.000000e+00
    endloop
  endfacet
  facet normal 0.000000e+00 0.000000e+00 -1.000000e+00
    outer loop
      vertex -5.000000e+01 -1.450000e+00 0.000000e+00
      vertex -4.750000e+01 5.500000e-01 0.000000e+00
      vertex -4.250000e+01 5.500000e-01 0.000000e+00
    endloop
  endfacet
  facet normal 0.000000e+00 0.000000e+00 -1.000000e+00
    outer loop
      vertex -5.000000e+01 -1.450000e+00 0.000000e+00
      vertex -4.250000e+01 5.500000e-01 0.000000e+00
      vertex -4.000000e+01 -1.450000e+00 0.000000e+00
    endloop
  endfacet
  facet normal 0.000000e+00 0.000000e+00 -1.000000e+00
    outer loop
      vertex -4.750000e+01 5.550000e+00 0.000000e+00
      vertex -4.750000e+01 5.500000e-01 0.000000e+00
      vertex -5.000000e+01 -1.450000e+00 0.000000e+00
    endloop
  endfacet
  facet normal 0.000000e+00 0.000000e+00 -1.000000e+00
    outer loop
      vertex -5.000000e+01 7.550000e+00 0.000000e+00
      vertex -4.250000e+01 5.550000e+00 0.000000e+00
      vertex -4.750000e+01 5.550000e+00 0.000000e+00
    endloop
  endfacet
  facet normal 0.000000e+00 0.000000e+00 -1.000000e+00
    outer loop
      vertex -5.000000e+01 7.550000e+00 0.000000e+00
      vertex -4.000000e+01 7.550000e+00 0.000000e+00
      vertex -4.250000e+01 5.550000e+00 0.000000e+00
    endloop
  endfacet
  facet normal 0.000000e+00 0.000000e+00 -1.000000e+00
    outer loop
      vertex -5.000000e+01 7.550000e+00 0.000000e+00
      vertex -4.750000e+01 5.550000e+00 0.000000e+00
      vertex -5.000000e+01 -1.450000e+00 0.000000e+00
    endloop
  endfacet
  facet normal 0.000000e+00 0.000000e+00 -1.000000e+00
    outer loop
      vertex 6.000000e+00 7.550000e+00 0.000000e+00
      vertex 5.000000e+01 7.550000e+00 0.000000e+00
      vertex 4.251098e+01 5.539021e+00 0.000000e+00
    endloop
  endfacet
  facet normal 0.000000e+00 0.000000e+00 1.000000e+00
    outer loop
      vertex 4.748902e+01 5.609789e-01 1.000000e+01
      vertex 5.000000e+01 -1.450000e+00 1.000000e+01
      vertex 5.000000e+01 7.550000e+00 1.000000e+01
    endloop
  endfacet
  facet normal 0.000000e+00 0.000000e+00 1.000000e+00
    outer loop
      vertex 5.000000e+01 -1.450000e+00 1.000000e+01
      vertex 4.748902e+01 5.609789e-01 1.000000e+01
      vertex 4.251098e+01 5.609789e-01 1.000000e+01
    endloop
  endfacet
  facet normal 0.000000e+00 0.000000e+00 1.000000e+00
    outer loop
      vertex 4.748902e+01 5.609789e-01 1.000000e+01
      vertex 5.000000e+01 7.550000e+00 1.000000e+01
      vertex 4.748902e+01 5.539021e+00 1.000000e+01
    endloop
  endfacet
  facet normal 0.000000e+00 0.000000e+00 1.000000e+00
    outer loop
      vertex 4.748902e+01 5.539021e+00 1.000000e+01
      vertex 5.000000e+01 7.550000e+00 1.000000e+01
      vertex 4.251098e+01 5.539021e+00 1.000000e+01
    endloop
  endfacet
  facet normal 0.000000e+00 0.000000e+00 1.000000e+00
    outer loop
      vertex 4.251098e+01 5.609789e-01 1.000000e+01
      vertex 4.251098e+01 5.539021e+00 1.000000e+01
      vertex 1.600000e+01 -1.450000e+00 1.000000e+01
    endloop
  endfacet
  facet normal 0.000000e+00 0.000000e+00 1.000000e+00
    outer loop
      vertex 5.000000e+01 -1.450000e+00 1.000000e+01
      vertex 4.251098e+01 5.609789e-01 1.000000e+01
      vertex 1.600000e+01 -1.450000e+00 1.000000e+01
    endloop
  endfacet
  facet normal 0.000000e+00 0.000000e+00 1.000000e+00
    outer loop
      vertex 6.000000e+00 -1.450000e+00 1.000000e+01
      vertex 1.600000e+01 -1.450000e+00 1.000000e+01
      vertex 6.000000e+00 1.550000e+00 1.000000e+01
    endloop
  endfacet
  facet normal 0.000000e+00 0.000000e+00 1.000000e+00
    outer loop
      vertex 6.000000e+00 1.550000e+00 1.000000e+01
      vertex 1.600000e+01 -1.450000e+00 1.000000e+01
      vertex 6.000000e+00 4.550000e+00 1.000000e+01
    endloop
  endfacet
  facet normal 0.000000e+00 0.000000e+00 1.000000e+00
    outer loop
      vertex 1.600000e+01 -1.450000e+00 1.000000e+01
      vertex 4.251098e+01 5.539021e+00 1.000000e+01
      vertex 6.000000e+00 7.550000e+00 1.000000e+01
    endloop
  endfacet
  facet normal 0.000000e+00 0.000000e+00 1.000000e+00
    outer loop
      vertex 6.000000e+00 4.550000e+00 1.000000e+01
      vertex 1.600000e+01 -1.450000e+00 1.000000e+01
      vertex 6.000000e+00 7.550000e+00 1.000000e+01
    endloop
  endfacet
  facet normal 0.000000e+00 0.000000e+00 1.000000e+00
    outer loop
      vertex -4.000000e+01 -1.450000e+00 1.000000e+01
      vertex -4.000000e+01 1.550000e+00 1.000000e+01
      vertex -4.250000e+01 5.500000e-01 1.000000e+01
    endloop
  endfacet
  facet normal 0.000000e+00 0.000000e+00 1.000000e+00
    outer loop
      vertex -4.000000e+01 1.550000e+00 1.000000e+01
      vertex 6.000000e+00 1.550000e+00 1.000000e+01
      vertex -4.000000e+01 4.550000e+00 1.000000e+01
    endloop
  endfacet
  facet normal 0.000000e+00 0.000000e+00 1.000000e+00
    outer loop
      vertex 6.000000e+00 1.550000e+00 1.000000e+01
      vertex 6.000000e+00 4.550000e+00 1.000000e+01
      vertex -4.000000e+01 4.550000e+00 1.000000e+01
    endloop
  endfacet
  facet normal 0.000000e+00 0.000000e+00 1.000000e+00
    outer loop
      vertex -4.000000e+01 4.550000e+00 1.000000e+01
      vertex -4.000000e+01 7.550000e+00 1.000000e+01
      vertex -4.250000e+01 5.550000e+00 1.000000e+01
    endloop
  endfacet
  facet normal 0.000000e+00 0.000000e+00 1.000000e+00
    outer loop
      vertex -4.250000e+01 5.500000e-01 1.000000e+01
      vertex -4.000000e+01 1.550000e+00 1.000000e+01
      vertex -4.250000e+01 5.550000e+00 1.000000e+01
    endloop
  endfacet
  facet normal 0.000000e+00 0.000000e+00 1.000000e+00
    outer loop
      vertex -4.000000e+01 1.550000e+00 1.000000e+01
      vertex -4.000000e+01 4.550000e+00 1.000000e+01
      vertex -4.250000e+01 5.550000e+00 1.000000e+01
    endloop
  endfacet
  facet normal 0.000000e+00 0.000000e+00 1.000000e+00
    outer loop
      vertex -4.250000e+01 5.500000e-01 1.000000e+01
      vertex -4.750000e+01 5.500000e-01 1.000000e+01
      vertex -5.000000e+01 -1.450000e+00 1.000000e+01
    endloop
  endfacet
  facet normal 0.000000e+00 0.000000e+00 1.000000e+00
    outer loop
      vertex -4.000000e+01 -1.450000e+00 1.000000e+01
      vertex -4.250000e+01 5.500000e-01 1.000000e+01
      vertex -5.000000e+01 -1.450000e+00 1.000000e+01
    endloop
  endfacet
  facet normal 0.000000e+00 0.000000e+00 1.000000e+00
    outer loop
      vertex -5.000000e+01 -1.450000e+00 1.000000e+01
      vertex -4.750000e+01 5.500000e-01 1.000000e+01
      vertex -4.750000e+01 5.550000e+00 1.000000e+01
    endloop
  endfacet
  facet normal 0.000000e+00 0.000000e+00 1.000000e+00
    outer loop
      vertex -4.750000e+01 5.550000e+00 1.000000e+01
      vertex -4.250000e+01 5.550000e+00 1.000000e+01
      vertex -5.000000e+01 7.550000e+00 1.000000e+01
    endloop
  endfacet
  facet normal 0.000000e+00 0.000000e+00 1.000000e+00
    outer loop
      vertex -4.250000e+01 5.550000e+00 1.000000e+01
      vertex -4.000000e+01 7.550000e+00 1.000000e+01
      vertex -5.000000e+01 7.550000e+00 1.000000e+01
    endloop
  endfacet
  facet normal 0.000000e+00 0.000000e+00 1.000000e+00
    outer loop
      vertex -5.000000e+01 -1.450000e+00 1.000000e+01
      vertex -4.750000e+01 5.550000e+00 1.000000e+01
      vertex -5.000000e+01 7.550000e+00 1.000000e+01
    endloop
  endfacet
  facet normal 0.000000e+00 0.000000e+00 1.000000e+00
    outer loop
      vertex 4.251098e+01 5.539021e+00 1.000000e+01
      vertex 5.000000e+01 7.550000e+00 1.000000e+01
      vertex 6.000000e+00 7.550000e+00 1.000000e+01
    endloop
  endfacet
  facet normal 0.000000e+00 1.000000e+00 0.000000e+00
    outer loop
      vertex 6.000000e+00 4.550000e+00 1.000000e+01
      vertex 6.000000e+00 4.550000e+00 0.000000e+00
      vertex -4.000000e+01 4.550000e+00 1.000000e+01
    endloop
  endfacet
  facet normal 0.000000e+00 1.000000e+00 0.000000e+00
    outer loop
      vertex -4.000000e+01 4.550000e+00 1.000000e+01
      vertex 6.000000e+00 4.550000e+00 0.000000e+00
      vertex -4.000000e+01 4.550000e+00 0.000000e+00
    endloop
  endfacet
  facet normal -7.071068e-01 -7.071068e-01 0.000000e+00
    outer loop
      vertex -4.390000e+01 -7.550000e+00 1.000000e+01
      vertex -5.000000e+01 -1.450000e+00 1.000000e+01
      vertex -5.000000e+01 -1.450000e+00 0.000000e+00
    endloop
  endfacet
  facet normal -7.071068e-01 -7.071068e-01 -0.000000e+00
    outer loop
      vertex -4.390000e+01 -7.550000e+00 1.000000e+01
      vertex -5.000000e+01 -1.450000e+00 0.000000e+00
      vertex -4.390000e+01 -7.550000e+00 0.000000e+00
    endloop
  endfacet
  facet normal 0.000000e+00 0.000000e+00 -1.000000e+00
    outer loop
      vertex -4.390000e+01 -7.550000e+00 0.000000e+00
      vertex -5.000000e+01 -1.450000e+00 0.000000e+00
      vertex -4.000000e+01 -1.450000e+00 0.000000e+00
    endloop
  endfacet
  facet normal 3.416989e-16 -2.184632e-16 -1.000000e+00
    outer loop
      vertex -4.000000e+01 -4.550000e+00 6.772360e-16
      vertex -4.390000e+01 -7.550000e+00 0.000000e+00
      vertex -4.000000e+01 -1.450000e+00 0.000000e+00
    endloop
  endfacet
  facet normal 0.000000e+00 2.257453e-16 -1.000000e+00
    outer loop
      vertex -4.390000e+01 -7.550000e+00 0.000000e+00
      vertex -4.000000e+01 -4.550000e+00 6.772360e-16
      vertex -3.000000e+01 -7.550000e+00 0.000000e+00
    endloop
  endfacet
  facet normal -6.772360e-17 0.000000e+00 -1.000000e+00
    outer loop
      vertex -3.000000e+01 -7.550000e+00 0.000000e+00
      vertex -4.000000e+01 -4.550000e+00 6.772360e-16
      vertex -3.000000e+01 -4.550000e+00 0.000000e+00
    endloop
  endfacet
  facet normal 0.000000e+00 0.000000e+00 -1.000000e+00
    outer loop
      vertex -4.000000e+01 -1.450000e+00 0.000000e+00
      vertex -4.000000e+01 1.550000e+00 0.000000e+00
      vertex -3.000000e+01 -4.550000e+00 0.000000e+00
    endloop
  endfacet
  facet normal -6.772361e-17 -2.184632e-16 -1.000000e+00
    outer loop
      vertex -4.000000e+01 -4.550000e+00 6.772360e-16
      vertex -4.000000e+01 -1.450000e+00 0.000000e+00
      vertex -3.000000e+01 -4.550000e+00 0.000000e+00
    endloop
  endfacet
  facet normal 6.772361e-17 -2.184632e-16 -1.000000e+00
    outer loop
      vertex 6.000000e+00 -4.550000e+00 6.772360e-16
      vertex -4.000000e+00 -4.550000e+00 0.000000e+00
      vertex 6.000000e+00 -1.450000e+00 0.000000e+00
    endloop
  endfacet
  facet normal 0.000000e+00 0.000000e+00 -1.000000e+00
    outer loop
      vertex 6.000000e+00 -1.450000e+00 0.000000e+00
      vertex -4.000000e+00 -4.550000e+00 0.000000e+00
      vertex 6.000000e+00 1.550000e+00 0.000000e+00
    endloop
  endfacet
  facet normal 0.000000e+00 0.000000e+00 -1.000000e+00
    outer loop
      vertex -3.000000e+01 -4.550000e+00 0.000000e+00
      vertex -4.000000e+01 1.550000e+00 0.000000e+00
      vertex 6.000000e+00 1.550000e+00 0.000000e+00
    endloop
  endfacet
  facet normal 0.000000e+00 0.000000e+00 -1.000000e+00
    outer loop
      vertex -4.000000e+00 -4.550000e+00 0.000000e+00
      vertex -3.000000e+01 -4.550000e+00 0.000000e+00
      vertex 6.000000e+00 1.550000e+00 0.000000e+00
    endloop
  endfacet
  facet normal 6.772360e-17 0.000000e+00 -1.000000e+00
    outer loop
      vertex -4.000000e+00 -7.550000e+00 0.000000e+00
      vertex -4.000000e+00 -4.550000e+00 0.000000e+00
      vertex 6.000000e+00 -4.550000e+00 6.772360e-16
    endloop
  endfacet
  facet normal 0.000000e+00 2.257453e-16 -1.000000e+00
    outer loop
      vertex -4.000000e+00 -7.550000e+00 0.000000e+00
      vertex 6.000000e+00 -4.550000e+00 6.772360e-16
      vertex 9.900002e+00 -7.550000e+00 0.000000e+00
    endloop
  endfacet
  facet normal -3.416988e-16 -2.184632e-16 -1.000000e+00
    outer loop
      vertex 9.900002e+00 -7.550000e+00 0.000000e+00
      vertex 6.000000e+00 -4.550000e+00 6.772360e-16
      vertex 6.000000e+00 -1.450000e+00 0.000000e+00
    endloop
  endfacet
  facet normal 0.000000e+00 0.000000e+00 -1.000000e+00
    outer loop
      vertex 9.900002e+00 -7.550000e+00 0.000000e+00
      vertex 6.000000e+00 -1.450000e+00 0.000000e+00
      vertex 1.600000e+01 -1.450000e+00 0.000000e+00
    endloop
  endfacet
  facet normal -1.000000e+00 0.000000e+00 0.000000e+00
    outer loop
      vertex 6.000000e+00 7.550000e+00 1.000000e+01
      vertex 6.000000e+00 7.550000e+00 0.000000e+00
      vertex 6.000000e+00 4.550000e+00 0.000000e+00
    endloop
  endfacet
  facet normal -1.000000e+00 0.000000e+00 0.000000e+00
    outer loop
      vertex 6.000000e+00 4.550000e+00 1.000000e+01
      vertex 6.000000e+00 7.550000e+00 1.000000e+01
      vertex 6.000000e+00 4.550000e+00 0.000000e+00
    endloop
  endfacet
  facet normal 7.349688e-34 -1.000000e+00 0.000000e+00
    outer loop
      vertex 1.600000e+01 -1.450000e+00 1.000000e+01
      vertex 1.600000e+01 -1.450000e+00 0.000000e+00
      vertex 5.000000e+01 -1.450000e+00 1.000000e+01
    endloop
  endfacet
  facet normal 7.349688e-34 -1.000000e+00 0.000000e+00
    outer loop
      vertex 5.000000e+01 -1.450000e+00 1.000000e+01
      vertex 1.600000e+01 -1.450000e+00 0.000000e+00
      vertex 5.000000e+01 -1.450000e+00 0.000000e+00
    endloop
  endfacet
  facet normal 0.000000e+00 1.000000e+00 0.000000e+00
    outer loop
      vertex 5.000000e+01 7.550000e+00 1.000000e+01
      vertex 5.000000e+01 7.550000e+00 0.000000e+00
      vertex 6.000000e+00 7.550000e+00 0.000000e+00
    endloop
  endfacet
  facet normal 0.000000e+00 1.000000e+00 0.000000e+00
    outer loop
      vertex 6.000000e+00 7.550000e+00 1.000000e+01
      vertex 5.000000e+01 7.550000e+00 1.000000e+01
      vertex 6.000000e+00 7.550000e+00 0.000000e+00
    endloop
  endfacet
  facet normal 1.000000e+00 0.000000e+00 0.000000e+00
    outer loop
      vertex 5.000000e+01 -1.450000e+00 1.000000e+01
      vertex 5.000000e+01 -1.450000e+00 0.000000e+00
      vertex 5.000000e+01 7.550000e+00 0.000000e+00
    endloop
  endfacet
  facet normal 1.000000e+00 0.000000e+00 0.000000e+00
    outer loop
      vertex 5.000000e+01 7.550000e+00 1.000000e+01
      vertex 5.000000e+01 -1.450000e+00 1.000000e+01
      vertex 5.000000e+01 7.550000e+00 0.000000e+00
    endloop
  endfacet
  facet normal 1.000000e+00 0.000000e+00 0.000000e+00
    outer loop
      vertex -4.750000e+01 5.500000e-01 0.000000e+00
      vertex -4.750000e+01 5.550000e+00 0.000000e+00
      vertex -4.750000e+01 5.500000e-01 1.000000e+01
    endloop
  endfacet
  facet normal 1.000000e+00 0.000000e+00 0.000000e+00
    outer loop
      vertex -4.750000e+01 5.550000e+00 0.000000e+00
      vertex -4.750000e+01 5.550000e+00 1.000000e+01
      vertex -4.750000e+01 5.500000e-01 1.000000e+01
    endloop
  endfacet
  facet normal 0.000000e+00 1.000000e+00 0.000000e+00
    outer loop
      vertex -4.250000e+01 5.500000e-01 0.000000e+00
      vertex -4.750000e+01 5.500000e-01 0.000000e+00
      vertex -4.250000e+01 5.500000e-01 1.000000e+01
    endloop
  endfacet
  facet normal 0.000000e+00 1.000000e+00 0.000000e+00
    outer loop
      vertex -4.750000e+01 5.500000e-01 0.000000e+00
      vertex -4.750000e+01 5.500000e-01 1.000000e+01
      vertex -4.250000e+01 5.500000e-01 1.000000e+01
    endloop
  endfacet
  facet normal 0.000000e+00 -1.000000e+00 0.000000e+00
    outer loop
      vertex -4.750000e+01 5.550000e+00 0.000000e+00
      vertex -4.250000e+01 5.550000e+00 0.000000e+00
      vertex -4.750000e+01 5.550000e+00 1.000000e+01
    endloop
  endfacet
  facet normal 0.000000e+00 -1.000000e+00 0.000000e+00
    outer loop
      vertex -4.250000e+01 5.550000e+00 0.000000e+00
      vertex -4.250000e+01 5.550000e+00 1.000000e+01
      vertex -4.750000e+01 5.550000e+00 1.000000e+01
    endloop
  endfacet
  facet normal -1.000000e+00 0.000000e+00 0.000000e+00
    outer loop
      vertex -4.250000e+01 5.550000e+00 0.000000e+00
      vertex -4.250000e+01 5.500000e-01 0.000000e+00
      vertex -4.250000e+01 5.550000e+00 1.000000e+01
    endloop
  endfacet
  facet normal -1.000000e+00 0.000000e+00 0.000000e+00
    outer loop
      vertex -4.250000e+01 5.500000e-01 0.000000e+00
      vertex -4.250000e+01 5.500000e-01 1.000000e+01
      vertex -4.250000e+01 5.550000e+00 1.000000e+01
    endloop
  endfacet
  facet normal 0.000000e+00 -1.000000e+00 0.000000e+00
    outer loop
      vertex 4.251098e+01 5.539021e+00 0.000000e+00
      vertex 4.748902e+01 5.539021e+00 0.000000e+00
      vertex 4.748902e+01 5.539021e+00 1.000000e+01
    endloop
  endfacet
  facet normal 0.000000e+00 -1.000000e+00 0.000000e+00
    outer loop
      vertex 4.251098e+01 5.539021e+00 0.000000e+00
      vertex 4.748902e+01 5.539021e+00 1.000000e+01
      vertex 4.251098e+01 5.539021e+00 1.000000e+01
    endloop
  endfacet
  facet normal 1.000000e+00 0.000000e+00 0.000000e+00
    outer loop
      vertex 4.251098e+01 5.609789e-01 0.000000e+00
      vertex 4.251098e+01 5.539021e+00 0.000000e+00
      vertex 4.251098e+01 5.609789e-01 1.000000e+01
    endloop
  endfacet
  facet normal 1.000000e+00 0.000000e+00 0.000000e+00
    outer loop
      vertex 4.251098e+01 5.539021e+00 0.000000e+00
      vertex 4.251098e+01 5.539021e+00 1.000000e+01
      vertex 4.251098e+01 5.609789e-01 1.000000e+01
    endloop
  endfacet
  facet normal -1.000000e+00 0.000000e+00 0.000000e+00
    outer loop
      vertex 4.748902e+01 5.539021e+00 0.000000e+00
      vertex 4.748902e+01 5.609789e-01 0.000000e+00
      vertex 4.748902e+01 5.539021e+00 1.000000e+01
    endloop
  endfacet
  facet normal -1.000000e+00 0.000000e+00 0.000000e+00
    outer loop
      vertex 4.748902e+01 5.609789e-01 0.000000e+00
      vertex 4.748902e+01 5.609789e-01 1.000000e+01
      vertex 4.748902e+01 5.539021e+00 1.000000e+01
    endloop
  endfacet
  facet normal 0.000000e+00 1.000000e+00 0.000000e+00
    outer loop
      vertex 4.748902e+01 5.609789e-01 0.000000e+00
      vertex 4.251098e+01 5.609789e-01 0.000000e+00
      vertex 4.251098e+01 5.609789e-01 1.000000e+01
    endloop
  endfacet
  facet normal 0.000000e+00 1.000000e+00 0.000000e+00
    outer loop
      vertex 4.748902e+01 5.609789e-01 0.000000e+00
      vertex 4.251098e+01 5.609789e-01 1.000000e+01
      vertex 4.748902e+01 5.609789e-01 1.000000e+01
    endloop
  endfacet
  facet normal 0.000000e+00 0.000000e+00 1.000000e+00
    outer loop
      vertex -4.000000e+01 -1.450000e+00 1.000000e+01
      vertex -5.000000e+01 -1.450000e+00 1.000000e+01
      vertex -4.390000e+01 -7.550000e+00 1.000000e+01
    endloop
  endfacet
  facet normal 0.000000e+00 0.000000e+00 1.000000e+00
    outer loop
      vertex -4.000000e+01 -1.450000e+00 1.000000e+01
      vertex -4.390000e+01 -7.550000e+00 1.000000e+01
      vertex -4.000000e+01 -4.550000e+00 1.000000e+01
    endloop
  endfacet
  facet normal 0.000000e+00 0.000000e+00 1.000000e+00
    outer loop
      vertex -3.000000e+01 -7.550000e+00 1.000000e+01
      vertex -4.000000e+01 -4.550000e+00 1.000000e+01
      vertex -4.390000e+01 -7.550000e+00 1.000000e+01
    endloop
  endfacet
  facet normal 0.000000e+00 0.000000e+00 1.000000e+00
    outer loop
      vertex -3.000000e+01 -4.550000e+00 1.000000e+01
      vertex -4.000000e+01 -4.550000e+00 1.000000e+01
      vertex -3.000000e+01 -7.550000e+00 1.000000e+01
    endloop
  endfacet
  facet normal 1.000000e+00 0.000000e+00 0.000000e+00
    outer loop
      vertex -4.000000e+01 1.550000e+00 1.000000e+01
      vertex -4.000000e+01 -1.450000e+00 1.000000e+01
      vertex -4.000000e+01 -1.450000e+00 3.000000e+00
    endloop
  endfacet
  facet normal 1.000000e+00 0.000000e+00 0.000000e+00
    outer loop
      vertex -4.000000e+01 1.550000e+00 1.000000e+01
      vertex -4.000000e+01 -1.450000e+00 3.000000e+00
      vertex -4.000000e+01 1.550000e+00 3.000000e+00
    endloop
  endfacet
  facet normal -0.000000e+00 -1.000000e+00 -0.000000e+00
    outer loop
      vertex 6.000000e+00 1.550000e+00 1.000000e+01
      vertex -4.000000e+01 1.550000e+00 1.000000e+01
      vertex 6.000000e+00 1.550000e+00 3.000000e+00
    endloop
  endfacet
  facet normal 0.000000e+00 -1.000000e+00 0.000000e+00
    outer loop
      vertex -4.000000e+01 1.550000e+00 1.000000e+01
      vertex -4.000000e+01 1.550000e+00 3.000000e+00
      vertex 6.000000e+00 1.550000e+00 3.000000e+00
    endloop
  endfacet
  facet normal -1.000000e+00 0.000000e+00 0.000000e+00
    outer loop
      vertex 6.000000e+00 -1.450000e+00 1.000000e+01
      vertex 6.000000e+00 1.550000e+00 1.000000e+01
      vertex 6.000000e+00 -1.450000e+00 3.000000e+00
    endloop
  endfacet
  facet normal -1.000000e+00 0.000000e+00 0.000000e+00
    outer loop
      vertex 6.000000e+00 1.550000e+00 1.000000e+01
      vertex 6.000000e+00 1.550000e+00 3.000000e+00
      vertex 6.000000e+00 -1.450000e+00 3.000000e+00
    endloop
  endfacet
  facet normal 0.000000e+00 0.000000e+00 1.000000e+00
    outer loop
      vertex 6.000000e+00 -4.550000e+00 1.000000e+01
      vertex -4.000000e+00 -4.550000e+00 1.000000e+01
      vertex -4.000000e+00 -7.550000e+00 1.000000e+01
    endloop
  endfacet
  facet normal 0.000000e+00 0.000000e+00 1.000000e+00
    outer loop
      vertex 9.900002e+00 -7.550000e+00 1.000000e+01
      vertex 6.000000e+00 -4.550000e+00 1.000000e+01
      vertex -4.000000e+00 -7.550000e+00 1.000000e+01
    endloop
  endfacet
  facet normal 0.000000e+00 0.000000e+00 1.000000e+00
    outer loop
      vertex 6.000000e+00 -1.450000e+00 1.000000e+01
      vertex 6.000000e+00 -4.550000e+00 1.000000e+01
      vertex 9.900002e+00 -7.550000e+00 1.000000e+01
    endloop
  endfacet
  facet normal 0.000000e+00 0.000000e+00 1.000000e+00
    outer loop
      vertex 1.600000e+01 -1.450000e+00 1.000000e+01
      vertex 6.000000e+00 -1.450000e+00 1.000000e+01
      vertex 9.900002e+00 -7.550000e+00 1.000000e+01
    endloop
  endfacet
  facet normal 0.000000e+00 -1.000000e+00 0.000000e+00
    outer loop
      vertex -3.000000e+01 -7.550000e+00 0.000000e+00
      vertex -3.000000e+01 -7.550000e+00 1.000000e+01
      vertex -4.390000e+01 -7.550000e+00 1.000000e+01
    endloop
  endfacet
  facet normal 0.000000e+00 -1.000000e+00 0.000000e+00
    outer loop
      vertex -4.390000e+01 -7.550000e+00 0.000000e+00
      vertex -3.000000e+01 -7.550000e+00 0.000000e+00
      vertex -4.390000e+01 -7.550000e+00 1.000000e+01
    endloop
  endfacet
  facet normal 1.000000e+00 0.000000e+00 0.000000e+00
    outer loop
      vertex -3.000000e+01 -7.550000e+00 0.000000e+00
      vertex -3.000000e+01 -4.550000e+00 0.000000e+00
      vertex -3.000000e+01 -4.550000e+00 3.000000e+00
    endloop
  endfacet
  facet normal 1.000000e+00 0.000000e+00 0.000000e+00
    outer loop
      vertex -3.000000e+01 -4.550000e+00 3.000000e+00
      vertex -3.000000e+01 -4.550000e+00 1.000000e+01
      vertex -3.000000e+01 -7.550000e+00 1.000000e+01
    endloop
  endfacet
  facet normal 1.000000e+00 0.000000e+00 0.000000e+00
    outer loop
      vertex -3.000000e+01 -7.550000e+00 0.000000e+00
      vertex -3.000000e+01 -4.550000e+00 3.000000e+00
      vertex -3.000000e+01 -7.550000e+00 1.000000e+01
    endloop
  endfacet
  facet normal 0.000000e+00 -1.000000e+00 0.000000e+00
    outer loop
      vertex -3.000000e+01 -4.550000e+00 3.000000e+00
      vertex -3.000000e+01 -4.550000e+00 0.000000e+00
      vertex -4.000000e+00 -4.550000e+00 0.000000e+00
    endloop
  endfacet
  facet normal 0.000000e+00 -1.000000e+00 0.000000e+00
    outer loop
      vertex -3.000000e+01 -4.550000e+00 3.000000e+00
      vertex -4.000000e+00 -4.550000e+00 0.000000e+00
      vertex -4.000000e+00 -4.550000e+00 3.000000e+00
    endloop
  endfacet
  facet normal 7.071068e-01 -7.071066e-01 0.000000e+00
    outer loop
      vertex 1.600000e+01 -1.450000e+00 1.000000e+01
      vertex 9.900002e+00 -7.550000e+00 1.000000e+01
      vertex 9.900002e+00 -7.550000e+00 0.000000e+00
    endloop
  endfacet
  facet normal 7.071068e-01 -7.071066e-01 0.000000e+00
    outer loop
      vertex 1.600000e+01 -1.450000e+00 1.000000e+01
      vertex 9.900002e+00 -7.550000e+00 0.000000e+00
      vertex 1.600000e+01 -1.450000e+00 0.000000e+00
    endloop
  endfacet
  facet normal -1.000000e+00 0.000000e+00 0.000000e+00
    outer loop
      vertex -4.000000e+00 -4.550000e+00 3.000000e+00
      vertex -4.000000e+00 -4.550000e+00 0.000000e+00
      vertex -4.000000e+00 -7.550000e+00 0.000000e+00
    endloop
  endfacet
  facet normal -1.000000e+00 0.000000e+00 0.000000e+00
    outer loop
      vertex -4.000000e+00 -7.550000e+00 1.000000e+01
      vertex -4.000000e+00 -4.550000e+00 1.000000e+01
      vertex -4.000000e+00 -4.550000e+00 3.000000e+00
    endloop
  endfacet
  facet normal -1.000000e+00 0.000000e+00 0.000000e+00
    outer loop
      vertex -4.000000e+00 -7.550000e+00 1.000000e+01
      vertex -4.000000e+00 -4.550000e+00 3.000000e+00
      vertex -4.000000e+00 -7.550000e+00 0.000000e+00
    endloop
  endfacet
  facet normal 0.000000e+00 -1.000000e+00 0.000000e+00
    outer loop
      vertex 9.900002e+00 -7.550000e+00 1.000000e+01
      vertex -4.000000e+00 -7.550000e+00 1.000000e+01
      vertex -4.000000e+00 -7.550000e+00 0.000000e+00
    endloop
  endfacet
  facet normal 0.000000e+00 -1.000000e+00 0.000000e+00
    outer loop
      vertex 9.900002e+00 -7.550000e+00 1.000000e+01
      vertex -4.000000e+00 -7.550000e+00 0.000000e+00
      vertex 9.900002e+00 -7.550000e+00 0.000000e+00
    endloop
  endfacet
  facet normal 1.000000e+00 0.000000e+00 0.000000e+00
    outer loop
      vertex -4.000000e+01 -4.550000e+00 3.000000e+00
      vertex -4.000000e+01 -1.450000e+00 3.000000e+00
      vertex -4.000000e+01 -1.450000e+00 1.000000e+01
    endloop
  endfacet
  facet normal 1.000000e+00 0.000000e+00 0.000000e+00
    outer loop
      vertex -4.000000e+01 -4.550000e+00 3.000000e+00
      vertex -4.000000e+01 -1.450000e+00 1.000000e+01
      vertex -4.000000e+01 -4.550000e+00 1.000000e+01
    endloop
  endfacet
  facet normal 0.000000e+00 1.000000e+00 0.000000e+00
    outer loop
      vertex -3.000000e+01 -4.550000e+00 3.000000e+00
      vertex -4.000000e+01 -4.550000e+00 3.000000e+00
      vertex -3.000000e+01 -4.550000e+00 1.000000e+01
    endloop
  endfacet
  facet normal 0.000000e+00 1.000000e+00 0.000000e+00
    outer loop
      vertex -4.000000e+01 -4.550000e+00 3.000000e+00
      vertex -4.000000e+01 -4.550000e+00 1.000000e+01
      vertex -3.000000e+01 -4.550000e+00 1.000000e+01
    endloop
  endfacet
  facet normal 0.000000e+00 0.000000e+00 1.000000e+00
    outer loop
      vertex 6.000000e+00 -1.450000e+00 3.000000e+00
      vertex 6.000000e+00 1.550000e+00 3.000000e+00
      vertex -4.000000e+00 -4.550000e+00 3.000000e+00
    endloop
  endfacet
  facet normal 0.000000e+00 0.000000e+00 1.000000e+00
    outer loop
      vertex 6.000000e+00 -4.550000e+00 3.000000e+00
      vertex 6.000000e+00 -1.450000e+00 3.000000e+00
      vertex -4.000000e+00 -4.550000e+00 3.000000e+00
    endloop
  endfacet
  facet normal 0.000000e+00 0.000000e+00 1.000000e+00
    outer loop
      vertex -4.000000e+01 -4.550000e+00 3.000000e+00
      vertex -3.000000e+01 -4.550000e+00 3.000000e+00
      vertex -4.000000e+01 -1.450000e+00 3.000000e+00
    endloop
  endfacet
  facet normal 0.000000e+00 0.000000e+00 1.000000e+00
    outer loop
      vertex -4.000000e+01 -1.450000e+00 3.000000e+00
      vertex -3.000000e+01 -4.550000e+00 3.000000e+00
      vertex -4.000000e+01 1.550000e+00 3.000000e+00
    endloop
  endfacet
  facet normal 0.000000e+00 0.000000e+00 1.000000e+00
    outer loop
      vertex -4.000000e+00 -4.550000e+00 3.000000e+00
      vertex 6.000000e+00 1.550000e+00 3.000000e+00
      vertex -4.000000e+01 1.550000e+00 3.000000e+00
    endloop
  endfacet
  facet normal 0.000000e+00 0.000000e+00 1.000000e+00
    outer loop
      vertex -3.000000e+01 -4.550000e+00 3.000000e+00
      vertex -4.000000e+00 -4.550000e+00 3.000000e+00
      vertex -4.000000e+01 1.550000e+00 3.000000e+00
    endloop
  endfacet
  facet normal -1.000000e+00 0.000000e+00 0.000000e+00
    outer loop
      vertex 6.000000e+00 -1.450000e+00 1.000000e+01
      vertex 6.000000e+00 -1.450000e+00 3.000000e+00
      vertex 6.000000e+00 -4.550000e+00 3.000000e+00
    endloop
  endfacet
  facet normal -1.000000e+00 0.000000e+00 0.000000e+00
    outer loop
      vertex 6.000000e+00 -4.550000e+00 1.000000e+01
      vertex 6.000000e+00 -1.450000e+00 1.000000e+01
      vertex 6.000000e+00 -4.550000e+00 3.000000e+00
    endloop
  endfacet
  facet normal 0.000000e+00 1.000000e+00 0.000000e+00
    outer loop
      vertex -4.000000e+00 -4.550000e+00 1.000000e+01
      vertex 6.000000e+00 -4.550000e+00 3.000000e+00
      vertex -4.000000e+00 -4.550000e+00 3.000000e+00
    endloop
  endfacet
  facet normal 0.000000e+00 1.000000e+00 0.000000e+00
    outer loop
      vertex -4.000000e+00 -4.550000e+00 1.000000e+01
      vertex 6.000000e+00 -4.550000e+00 1.000000e+01
      vertex 6.000000e+00 -4.550000e+00 3.000000e+00
    endloop
  endfacet
endsolid Default
